<svg xmlns="http://www.w3.org/2000/svg" width="29" height="31" viewBox="0 0 16 17" shape-rendering="crispEdges">
  <rect x="5" y="0" width="2" height="1" fill="#111827"/>
  <rect x="4" y="1" width="1" height="1" fill="#111827"/>
  <rect x="5" y="1" width="2" height="1" fill="#ffffff"/>
  <rect x="7" y="1" width="1" height="1" fill="#111827"/>
  <rect x="4" y="2" width="1" height="1" fill="#111827"/>
  <rect x="5" y="2" width="2" height="1" fill="#ffffff"/>
  <rect x="7" y="2" width="1" height="1" fill="#111827"/>
  <rect x="4" y="3" width="1" height="1" fill="#111827"/>
  <rect x="5" y="3" width="2" height="1" fill="#ffffff"/>
  <rect x="7" y="3" width="1" height="1" fill="#111827"/>
  <rect x="4" y="4" width="1" height="1" fill="#111827"/>
  <rect x="5" y="4" width="2" height="1" fill="#ffffff"/>
  <rect x="7" y="4" width="3" height="1" fill="#111827"/>
  <rect x="4" y="5" width="1" height="1" fill="#111827"/>
  <rect x="5" y="5" width="2" height="1" fill="#ffffff"/>
  <rect x="7" y="5" width="1" height="1" fill="#111827"/>
  <rect x="8" y="5" width="2" height="1" fill="#ffffff"/>
  <rect x="10" y="5" width="3" height="1" fill="#111827"/>
  <rect x="4" y="6" width="1" height="1" fill="#111827"/>
  <rect x="5" y="6" width="2" height="1" fill="#ffffff"/>
  <rect x="7" y="6" width="1" height="1" fill="#111827"/>
  <rect x="8" y="6" width="2" height="1" fill="#ffffff"/>
  <rect x="10" y="6" width="1" height="1" fill="#111827"/>
  <rect x="11" y="6" width="2" height="1" fill="#ffffff"/>
  <rect x="13" y="6" width="2" height="1" fill="#111827"/>
  <rect x="1" y="7" width="2" height="1" fill="#111827"/>
  <rect x="4" y="7" width="1" height="1" fill="#111827"/>
  <rect x="5" y="7" width="2" height="1" fill="#ffffff"/>
  <rect x="7" y="7" width="1" height="1" fill="#111827"/>
  <rect x="8" y="7" width="2" height="1" fill="#ffffff"/>
  <rect x="10" y="7" width="1" height="1" fill="#111827"/>
  <rect x="11" y="7" width="2" height="1" fill="#ffffff"/>
  <rect x="13" y="7" width="1" height="1" fill="#111827"/>
  <rect x="14" y="7" width="1" height="1" fill="#ffffff"/>
  <rect x="15" y="7" width="1" height="1" fill="#111827"/>
  <rect x="0" y="8" width="1" height="1" fill="#111827"/>
  <rect x="1" y="8" width="2" height="1" fill="#ffffff"/>
  <rect x="3" y="8" width="2" height="1" fill="#111827"/>
  <rect x="5" y="8" width="10" height="1" fill="#ffffff"/>
  <rect x="15" y="8" width="1" height="1" fill="#111827"/>
  <rect x="0" y="9" width="1" height="1" fill="#111827"/>
  <rect x="1" y="9" width="3" height="1" fill="#ffffff"/>
  <rect x="4" y="9" width="1" height="1" fill="#111827"/>
  <rect x="5" y="9" width="10" height="1" fill="#ffffff"/>
  <rect x="15" y="9" width="1" height="1" fill="#111827"/>
  <rect x="1" y="10" width="1" height="1" fill="#111827"/>
  <rect x="2" y="10" width="13" height="1" fill="#ffffff"/>
  <rect x="15" y="10" width="1" height="1" fill="#111827"/>
  <rect x="2" y="11" width="1" height="1" fill="#111827"/>
  <rect x="3" y="11" width="12" height="1" fill="#ffffff"/>
  <rect x="15" y="11" width="1" height="1" fill="#111827"/>
  <rect x="2" y="12" width="1" height="1" fill="#111827"/>
  <rect x="3" y="12" width="11" height="1" fill="#ffffff"/>
  <rect x="14" y="12" width="1" height="1" fill="#111827"/>
  <rect x="3" y="13" width="1" height="1" fill="#111827"/>
  <rect x="4" y="13" width="10" height="1" fill="#ffffff"/>
  <rect x="14" y="13" width="1" height="1" fill="#111827"/>
  <rect x="4" y="14" width="1" height="1" fill="#111827"/>
  <rect x="5" y="14" width="8" height="1" fill="#ffffff"/>
  <rect x="13" y="14" width="1" height="1" fill="#111827"/>
  <rect x="4" y="15" width="1" height="1" fill="#111827"/>
  <rect x="5" y="15" width="8" height="1" fill="#ffffff"/>
  <rect x="13" y="15" width="1" height="1" fill="#111827"/>
  <rect x="4" y="16" width="10" height="1" fill="#111827"/>
</svg>
